# xmcd CD database file
#
# Track frame offsets:
#	182
#	11897
#	28312
#	41975
#	57240
#	71310
#	88450
#	106317
#	126675
#	145275
#	163432
#	176197
#	196277
#
# Disc length: 2806 seconds
#
# Revision: 3
# Processed by: cddbd v1.5.2PL0 Copyright (c) Steve Scherf et al.
# Submitted via: CDex 1.79
#
DISCID=d20af40d
DTITLE=Steve Earle - Essential Steve Earle
DYEAR=1993
DGENRE=Country
TTITLE0=Guitar Town
TTITLE1=Hillbilly Highway
TTITLE2=The Devil's Right Hand
TTITLE3=Goodbye's All We Got Left To Say
TTITLE4=Six Days On The Road
TTITLE5=Someday
TTITLE6=Good Ol' Boy (Gettin' Tough)
TTITLE7=Copperhead Road
TTITLE8=The Rain Came Down
TTITLE9=I Ain't Ever Satisfied
TTITLE10=Nowhere Road
TTITLE11=The Week Of Living Dangerously
TTITLE12=Continental Trailways Blues
EXTD=YEAR: 1993
EXTT0=
EXTT1=
EXTT2=
EXTT3=
EXTT4=
EXTT5=
EXTT6=
EXTT7=
EXTT8=
EXTT9=
EXTT10=
EXTT11=
EXTT12=
PLAYORDER=
